<svg id="" data-name="" xmlns="http://www.w3.org/2000/svg" viewBox="0 0 250 250">
	<defs>
		<style>
			.purple { fill: #9558b2; }
			.green { fill: #389826; }
			.red { fill: #cb3c33; }
			.blue { fill: #4063d8; }
		</style>
	</defs>
	<rect class="purple" x="0"   y="200" width="50" height="50" />
	<rect class="green"  x="150" y="200" width="50" height="50" />
	<rect class="red"    x="200" y="200" width="50" height="50" />
	<rect class="purple" x="50"  y="200" width="50" height="50" />
	<rect class="blue"   x="100" y="200" width="50" height="50" />
	<rect class="purple" x="0"   y="150" width="50" height="50" />
	<rect class="red"    x="150" y="150" width="50" height="50" />
	<rect class="green"  x="200" y="150" width="50" height="50" />
	<rect class="blue"   x="50"  y="150" width="50" height="50" />
	<rect class="green"  x="100" y="150" width="50" height="50" />
	<rect class="blue"   x="0"   y="100" width="50" height="50" />
	<rect class="green"  x="150" y="100" width="50" height="50" />
	<rect class="blue"   x="200" y="100" width="50" height="50" />
	<rect class="green"  x="50"  y="100" width="50" height="50" />
	<rect class="red"    x="100" y="100" width="50" height="50" />
	<rect class="green"  x="0"   y="50"  width="50" height="50" />
	<rect class="blue"   x="150" y="50"  width="50" height="50" />
	<rect class="purple" x="200" y="50"  width="50" height="50" />
	<rect class="red"    x="50"  y="50"  width="50" height="50" />
	<rect class="green"  x="100" y="50"  width="50" height="50" />
	<rect class="red"    x="0"   y="0"   width="50" height="50" />
	<rect class="purple" x="150" y="0"   width="50" height="50" />
	<rect class="purple" x="200" y="0"   width="50" height="50" />
	<rect class="green"  x="50"  y="0"   width="50" height="50" />
	<rect class="blue"   x="100" y="0"   width="50" height="50" />
</svg>